# xmcd
#
# Track frame offsets:
#	150
#	15333
#	29351
#	43461
#	56983
#	71445
#	85337
#	98314
#	111889
#	123900
#	136732
#	152642
#	166430
#	177844
#	191579
#	205420
#	219201
#	233017
#	248185
#	259164
#	274240
#	289061
#	302030
#	315158
#	327702
#
# Disc length: 4549 seconds
# Revision: 0
# Processed by: cddbd v1.5.2PL0 Copyright (c) Steve Scherf et al.
# Submitted via: dBpowerAMP V12.0
#
DISCID=6111c319
DTITLE=Various Artist - Mississippi Jook Joint Blues, disc 4
DYEAR=2016
DGENRE=Blues
TTITLE0=Lil Green - Romance In The Dark
TTITLE1=Louis Armstrong - Perdido Street Blues
TTITLE2=Count Basie - Dupree Blues
TTITLE3=Big Bill Broonzy - Shine On, Shine On
TTITLE4=Four Of The Bob Cats - Call Me A Taxi
TTITLE5=Louis Jordan - Pompton Turnpike
TTITLE6=Artie Shaw - My Blue Heaven
TTITLE7=Peetie Wheatstraw - Look Out For Yourself
TTITLE8=Jay McShann - Swingmatism
TTITLE9=Jimmie Lunceford - Battle Axe
TTITLE10=Glen Miller - Boulder Buff
TTITLE11=Count Basie - Down, Down, Down
TTITLE12=Art Tatum - Battery Bounce
TTITLE13=Johnny Hodges - Good Queen Bess
TTITLE14=Buddy Johnson - In There
TTITLE15=Fletcher Henderson - Let's Go Home
TTITLE16=Erskine Hawkins - Riff Time
TTITLE17=Artie Shaw - Summit Ridge Drive
TTITLE18=Four Of The Bob Cats - I Hear You Talking
TTITLE19=Glenn Miller - The Booglie Wooglie Piggy
TTITLE20=Buddy Johnson - Swing Along With Me 
TTITLE21=Louis Jordan - Pan Pan
TTITLE22=Larry Clinton - Taboo
TTITLE23=Earl Hines - Comin' In Home
TTITLE24=Count Basie And His Orchestra - Red Wagon
EXTD=
EXTT0=
EXTT1=
EXTT2=
EXTT3=
EXTT4=
EXTT5=
EXTT6=
EXTT7=
EXTT8=
EXTT9=
EXTT10=
EXTT11=
EXTT12=
EXTT13=
EXTT14=
EXTT15=
EXTT16=
EXTT17=
EXTT18=
EXTT19=
EXTT20=
EXTT21=
EXTT22=
EXTT23=
EXTT24=
PLAYORDER=
